<svg id="Group_16192" data-name="Group 16192" xmlns="http://www.w3.org/2000/svg" xmlns:xlink="http://www.w3.org/1999/xlink" width="15.827" height="17.514" viewBox="0 0 15.827 17.514">
  <defs>
    <clipPath id="clip-path">
      <rect id="Rectangle_6398" data-name="Rectangle 6398" width="15.827" height="17.514" fill="#707070"/>
    </clipPath>
  </defs>
  <g id="Group_16193" data-name="Group 16193" clip-path="url(#clip-path)">
    <path id="Path_82985" data-name="Path 82985" d="M8.259,17.514H7.575a.366.366,0,0,0-.075-.033,2.525,2.525,0,0,1-2.029-1.811c-.043-.133-.064-.273-.1-.415h-.2c-1.089,0-2.178.007-3.266,0A1.976,1.976,0,0,1,.038,12.919,2.038,2.038,0,0,1,1.929,11.3c.3-.021.338-.066.338-.364,0-1.066-.006-2.132,0-3.2A6.084,6.084,0,0,1,2.346,6.7,5.534,5.534,0,0,1,5.781,2.4c.171-.075.236-.139.22-.338A1.849,1.849,0,0,1,6.734.4,2.348,2.348,0,0,1,7.643,0H8.19c.014.009.027.024.042.026a1.92,1.92,0,0,1,1.6,2.141c-.016.121.028.161.132.208a5.715,5.715,0,0,1,3.6,5.222c.04.739.009,1.482.009,2.223,0,.4,0,.8,0,1.2,0,.2.073.264.265.278a2.818,2.818,0,0,1,.356.04,1.975,1.975,0,0,1-.4,3.92h-3.33c-.016.065-.029.115-.039.165a2.52,2.52,0,0,1-1.834,2.007c-.107.033-.216.058-.324.087m-.341-3.388h5.763c.068,0,.137,0,.205,0a.853.853,0,0,0,.8-.751.84.84,0,0,0-.648-.9,1.8,1.8,0,0,0-.3-.041A1.352,1.352,0,0,1,12.435,11q0-1.616,0-3.232a4.725,4.725,0,0,0-.309-1.686A4.461,4.461,0,0,0,6.112,3.5a4.34,4.34,0,0,0-2.7,4.088c-.037,1.167,0,2.337-.008,3.5a1.332,1.332,0,0,1-1,1.29c-.164.042-.339.04-.506.069a.84.84,0,0,0-.71.588.792.792,0,0,0,.23.857.939.939,0,0,0,.693.232q2.907,0,5.814,0M6.549,15.262A1.406,1.406,0,0,0,8,16.382a1.368,1.368,0,0,0,1.273-1.12ZM8.693,2a.755.755,0,0,0-.371-.759.788.788,0,0,0-.9.06.747.747,0,0,0-.3.7Z" transform="translate(0)" fill="#707070"/>
    <path id="Path_82986" data-name="Path 82986" d="M374.139,65.939a.574.574,0,0,1-.571-.511,6.617,6.617,0,0,0-.577-1.562,6.7,6.7,0,0,0-1.184-1.62.569.569,0,0,1,.3-.98.531.531,0,0,1,.483.161,7.674,7.674,0,0,1,2.1,3.8.557.557,0,0,1-.549.71" transform="translate(-358.908 -59.162)" fill="#707070"/>
    <path id="Path_82987" data-name="Path 82987" d="M1.474,66.025a.543.543,0,0,1-.555-.656,7.554,7.554,0,0,1,1.684-3.4c.126-.147.258-.289.394-.426a.567.567,0,1,1,.809.793A6.609,6.609,0,0,0,2.14,65.154c-.045.153-.078.308-.123.461a.548.548,0,0,1-.543.41" transform="translate(-0.875 -59.247)" fill="#707070"/>
  </g>
</svg>
