<svg xmlns="http://www.w3.org/2000/svg" xmlns:xlink="http://www.w3.org/1999/xlink" width="17" height="16" viewBox="0 0 17 16">
  <defs>
    <clipPath id="clip-path">
      <rect id="Rectangle_6399" data-name="Rectangle 6399" width="17" height="16" transform="translate(0 0.236)" fill="#707070"/>
    </clipPath>
  </defs>
  <g id="Group_16194" data-name="Group 16194" transform="translate(0 -0.201)">
    <g id="Group_16194-2" data-name="Group 16194" transform="translate(0 -0.035)" clip-path="url(#clip-path)">
      <path id="Path_82988" data-name="Path 82988" d="M13.384,0h.1c.1.017.195.029.289.053a1.5,1.5,0,0,1,1.175,1.51q0,1.171,0,2.343c0,.095.015.141.126.166a2.4,2.4,0,0,1,1.674,1.271,6.31,6.31,0,0,1,.3.851v.633a.322.322,0,0,0-.031.073,2.488,2.488,0,0,1-1.9,2.038c-.136.032-.174.078-.173.215.007.793.009,1.586,0,2.379a1.5,1.5,0,0,1-2.6.985,1.362,1.362,0,0,0-.158-.147A11.252,11.252,0,0,0,8,10.454a1.553,1.553,0,0,1-.539,1.194,1.81,1.81,0,0,1-1.255.37c-.07.88-.138,1.741-.208,2.6A1.489,1.489,0,0,1,4.865,15.98c-.111.03-.225.046-.338.068h-.1c-.048-.011-.1-.027-.144-.034a1.5,1.5,0,0,1-1.288-1.381q-.071-.887-.14-1.774c-.074-.939-.152-1.878-.22-2.818a.172.172,0,0,0-.141-.183A3.445,3.445,0,0,1,.139,7.487c-.065-.2-.094-.418-.14-.628v-.7a.356.356,0,0,0,.029-.075A3.452,3.452,0,0,1,2.089,3.36,4.42,4.42,0,0,1,4.031,3C4.7,3,5.374,2.992,6.039,2.921a14.08,14.08,0,0,0,3.959-1A7.537,7.537,0,0,0,12.457.4a1.346,1.346,0,0,1,.418-.263A3.687,3.687,0,0,1,13.384,0m-1.44,2.066c-.252.139-.481.274-.717.393A14.854,14.854,0,0,1,6.677,3.85c-.165.025-.189.083-.189.229,0,1.586,0,3.173,0,4.759,0,.308,0,.306.3.351a14.8,14.8,0,0,1,4.3,1.316c.286.14.564.3.859.454ZM1.572,4.983A.315.315,0,0,0,1.63,5l.8,0a.526.526,0,0,1,.5.263.5.5,0,0,1-.474.748c-.421.009-.843.006-1.264,0-.115,0-.162.039-.162.15,0,.226,0,.452,0,.678,0,.136.061.163.183.161Q1.826,7,2.442,7a.507.507,0,1,1,0,1.011c-.244,0-.488,0-.732,0h-.2a2.411,2.411,0,0,0,1.809.973c.642.031,1.286.026,1.929.036.076,0,.153,0,.236,0v-5c-.631,0-1.252,0-1.872,0a2.513,2.513,0,0,0-.429.038,2.714,2.714,0,0,0-1.61.92M13.95,6.509q0-2.431,0-4.861a1.265,1.265,0,0,0-.006-.183.492.492,0,0,0-.582-.434.609.609,0,0,0-.411.558q0,4.928,0,9.855c0,.022,0,.044,0,.067a.5.5,0,0,0,1-.008c0-.05,0-.1,0-.15q0-2.422,0-4.845M5.34,10.031H3.646c0,.036,0,.068.005.1q.087,1.127.174,2.253c.056.724.109,1.447.17,2.17a.5.5,0,0,0,1-.018c.009-.116.021-.232.03-.348q.131-1.682.261-3.363c.02-.259.035-.517.053-.795M14.956,7.92a1.458,1.458,0,0,0,0-2.821ZM6.282,10.985c.51.073.746-.208.707-.653,0-.038-.039-.1-.069-.1-.183-.035-.368-.058-.574-.088l-.064.845" transform="translate(0.001 0.002)" fill="#707070"/>
    </g>
  </g>
</svg>
