<svg id="Group_18509" data-name="Group 18509" xmlns="http://www.w3.org/2000/svg" xmlns:xlink="http://www.w3.org/1999/xlink" width="17.697" height="16.529" viewBox="0 0 17.697 16.529">
  <defs>
    <clipPath id="clip-path">
      <rect id="Rectangle_7551" data-name="Rectangle 7551" width="17.697" height="16.529" fill="#e1003e"/>
    </clipPath>
  </defs>
  <g id="Group_18508" data-name="Group 18508" clip-path="url(#clip-path)">
    <path id="Path_85651" data-name="Path 85651" d="M0,141.168V130.71H17.41c.073,0,.146,0,.219.005l.048.031c0,.066.013.133.013.2,0,3.224-.013,6.447.008,9.671a1.855,1.855,0,0,1-1.819,1.819c-4.833.018-9.666.01-14.5,0a1.193,1.193,0,0,1-1.063-.579A5.852,5.852,0,0,1,0,141.168m12.995-1.206c.225,0,.451.007.676,0,.349-.014.474-.147.482-.484.01-.414.012-.828,0-1.241-.011-.358-.132-.509-.51-.517-.42-.009-.84-.005-1.26,0-.341,0-.471.127-.476.469-.007.444,0,.888,0,1.333a.408.408,0,0,0,.449.443c.213,0,.426,0,.639,0m.017-4.969V135c.213,0,.426,0,.639,0,.366,0,.479-.148.5-.47.024-.425.013-.852,0-1.278a.457.457,0,0,0-.448-.5q-.694-.007-1.388,0a.423.423,0,0,0-.41.364q0,.746.009,1.491a.346.346,0,0,0,.348.376c.249.012.5,0,.748,0M7.5,133.9h0c0,.243,0,.487,0,.73a.454.454,0,0,0,.363.386c.48,0,.959,0,1.439-.013a.4.4,0,0,0,.439-.45c.009-.438.007-.876,0-1.314a.438.438,0,0,0-.5-.479c-.432,0-.864.005-1.3,0a.434.434,0,0,0-.453.449c.008.231,0,.462,0,.694m0,4.929c0,.243,0,.487,0,.73a.4.4,0,0,0,.378.4q.73.01,1.46,0a.394.394,0,0,0,.4-.363q.015-.748,0-1.5a.4.4,0,0,0-.371-.375c-.5-.009-1-.01-1.5,0a.388.388,0,0,0-.369.4c0,.231,0,.462,0,.693m-4.353-4.94h0c0,.25,0,.5,0,.749a.447.447,0,0,0,.368.375c.456,0,.912-.011,1.368-.005a.5.5,0,0,0,.505-.481c.011-.438.012-.877,0-1.315a.436.436,0,0,0-.486-.452q-.648,0-1.3,0a.415.415,0,0,0-.46.453c0,.225,0,.451,0,.676m0,4.949h0c0,.244,0,.488,0,.731a.4.4,0,0,0,.385.394c.457.006.914.008,1.371,0a.464.464,0,0,0,.481-.439c.015-.475.009-.95,0-1.425a.4.4,0,0,0-.376-.372c-.5-.008-1-.008-1.5,0a.384.384,0,0,0-.362.392c0,.238,0,.475,0,.713" transform="translate(0 -125.92)" fill="#e1003e"/>
    <path id="Path_85652" data-name="Path 85652" d="M15.983,0h.037c.063.024.125.054.189.072a1.771,1.771,0,0,1,1.422,1.767c-.014.548,0,1.1,0,1.645,0,.052-.007.1-.011.165H.2c-.067,0-.133.005-.2.008V1.316c.012-.018.032-.035.035-.055A1.64,1.64,0,0,1,.462.4,1.538,1.538,0,0,1,1.207,0h.11A.55.55,0,0,0,1.45.035q.726,0,1.451,0A.553.553,0,0,0,3.036,0h.073C3.1.559,3.1,1.119,3.1,1.678a.491.491,0,0,0,.467.516.531.531,0,0,0,.609-.5c.009-.566,0-1.132,0-1.7h.073a1.037,1.037,0,0,0,.19.035q4.163,0,8.325,0A1.037,1.037,0,0,0,12.947,0h.073q-.006.822-.011,1.643a.545.545,0,0,0,.012.166.525.525,0,0,0,.6.386.531.531,0,0,0,.457-.48c.011-.572,0-1.144,0-1.716h.073a.429.429,0,0,0,.116.035q.8,0,1.6,0A.408.408,0,0,0,15.983,0" fill="#e1003e"/>
    <path id="Path_85653" data-name="Path 85653" d="M124.465,0a1.037,1.037,0,0,1-.19.035q-4.163,0-8.325,0a1.037,1.037,0,0,1-.19-.035Z" transform="translate(-111.518)" fill="#e1003e"/>
    <path id="Path_85654" data-name="Path 85654" d="M388.031,0a.408.408,0,0,1-.114.036q-.8,0-1.6,0A.429.429,0,0,1,386.2,0Z" transform="translate(-372.048)" fill="#e1003e"/>
    <path id="Path_85655" data-name="Path 85655" d="M37.645,0a.553.553,0,0,1-.134.035q-.726,0-1.451,0A.55.55,0,0,1,35.926,0Z" transform="translate(-34.609)" fill="#e1003e"/>
    <path id="Path_85656" data-name="Path 85656" d="M481.008,130.9l.048.031-.048-.031" transform="translate(-463.38 -126.101)" fill="#e1003e"/>
  </g>
</svg>
