<svg id="Group_18508" data-name="Group 18508" xmlns="http://www.w3.org/2000/svg" xmlns:xlink="http://www.w3.org/1999/xlink" width="17.019" height="17.019" viewBox="0 0 17.019 17.019">
  <defs>
    <clipPath id="clip-path">
      <rect id="Rectangle_5980" data-name="Rectangle 5980" width="17.019" height="17.019" fill="#e1003e"/>
    </clipPath>
  </defs>
  <g id="Group_15411" data-name="Group 15411" clip-path="url(#clip-path)">
    <path id="Path_79047" data-name="Path 79047" d="M17.019,7.815V8.979a1.12,1.12,0,0,0-.03.11c-.079.474-.127.955-.241,1.42A8.392,8.392,0,0,1,4.954,15.976a.439.439,0,0,0-.331-.026q-1.952.527-3.906,1.044A.532.532,0,0,1,.026,16.3Q.544,14.348,1.071,12.4a.461.461,0,0,0-.035-.345,8.344,8.344,0,0,1-.695-5.16A8.157,8.157,0,0,1,2.3,2.852,8.277,8.277,0,0,1,7.142.132c.3-.054.6-.088.9-.131H9.2c.1.013.2.028.293.039a8.43,8.43,0,0,1,7.39,6.892c.054.293.088.589.131.883M1.285,15.732l.088-.02c1.078-.288,2.157-.573,3.233-.868a.806.806,0,0,1,.62.072,7.184,7.184,0,0,0,5.045.626,7.263,7.263,0,0,0,5.625-6.3,6.841,6.841,0,0,0-.523-3.67A7.169,7.169,0,0,0,9.056,1.093a6.585,6.585,0,0,0-3.288.556A7.162,7.162,0,0,0,1.32,7.76a6.861,6.861,0,0,0,.733,3.925,1.111,1.111,0,0,1,.088.87c-.3,1.046-.568,2.1-.856,3.176" transform="translate(0.001 -0.001)" fill="#e1003e"/>
    <path id="Path_79048" data-name="Path 79048" d="M124.65,164.177l-.032.086a1.432,1.432,0,0,1-1.391.991c-1.441.009-2.881.013-4.322,0a1.422,1.422,0,0,1-1.458-1.5q0-1.72,0-3.441a1.424,1.424,0,0,1,1.467-1.489c1.435-.011,2.87-.008,4.305,0a1.464,1.464,0,0,1,1.434,1.077c.283-.163.565-.324.846-.487a.722.722,0,0,1,.653-.064.678.678,0,0,1,.474.656c.005,1.352.009,2.7,0,4.056a.726.726,0,0,1-1.09.621c-.3-.159-.585-.334-.886-.507m-3.569-4.275c-.709,0-1.418,0-2.127,0-.317,0-.443.129-.443.444q0,1.686,0,3.373c0,.338.121.46.461.46h4.187c.338,0,.458-.121.459-.461q0-1.678,0-3.356c0-.34-.121-.459-.46-.46q-1.038,0-2.077,0m4.473,3.557v-2.838c-.279.16-.543.307-.8.464a.184.184,0,0,0-.058.137q-.006.821,0,1.642a.169.169,0,0,0,.049.127c.263.158.53.308.81.468" transform="translate(-113.53 -153.528)" fill="#e1003e"/>
  </g>
</svg>
