<svg xmlns="http://www.w3.org/2000/svg" xmlns:xlink="http://www.w3.org/1999/xlink" width="24" height="24" viewBox="0 0 24 24">
  <defs>
    <clipPath id="clip-path">
      <rect id="Rectangle_6393" data-name="Rectangle 6393" width="24" height="24" fill="#707070"/>
    </clipPath>
  </defs>
  <g id="Group_16198" data-name="Group 16198" transform="translate(-0.021 -0.322)">
    <g id="Group_16186" data-name="Group 16186" transform="translate(0.021 0.322)" clip-path="url(#clip-path)">
      <path id="Path_82969" data-name="Path 82969" d="M58.5,167.162c-.391-.057-.783-.105-1.172-.173a11.77,11.77,0,0,1-4.981-2.137c-.024-.017-.048-.033-.1-.067a1.28,1.28,0,0,0,.02.158.685.685,0,0,1-.422.89.672.672,0,0,1-.863-.47c-.315-.925-.62-1.854-.931-2.781a.662.662,0,0,1,.152-.725.671.671,0,0,1,.745-.153q1.242.417,2.486.829c.1.033.2.062.3.1a.7.7,0,0,1,.489.679.692.692,0,0,1-.564.641c-.043.011-.087.017-.19.037.311.187.578.36.856.512a10.112,10.112,0,0,0,14.9-6.9,9.807,9.807,0,0,0-.543-5.612,1.09,1.09,0,0,1-.087-.454.668.668,0,0,1,1.289-.171c.249.781.484,1.567.693,2.36a11.475,11.475,0,0,1,.188,1.167v1.573c-.05.362-.089.725-.151,1.084a11.6,11.6,0,0,1-9.329,9.431c-.4.073-.81.121-1.215.18Z" transform="translate(-47.791 -144.204)" fill="#707070"/>
      <path id="Path_82970" data-name="Path 82970" d="M12.269,0c.4.058.8.107,1.194.177a11.649,11.649,0,0,1,4.83,2.043l.245.173c-.03-.136-.058-.228-.069-.322a.672.672,0,0,1,1.3-.319c.247.712.481,1.429.72,2.144.076.227.149.454.226.68a.685.685,0,0,1-.893.884q-1.211-.406-2.423-.808c-.113-.038-.227-.074-.34-.114a.679.679,0,0,1,.069-1.331c.036-.009.073-.013.134-.023a1.315,1.315,0,0,0-.122-.1A10.132,10.132,0,0,0,1.54,9.555a9.75,9.75,0,0,0,.554,5.632.7.7,0,0,1-.266.955.672.672,0,0,1-.961-.365A11.975,11.975,0,0,1,.138,13.2c-.049-.309-.092-.619-.138-.928V10.7A1.42,1.42,0,0,0,.043,10.5,10,10,0,0,1,.709,7.538,11.438,11.438,0,0,1,9.5.178C9.9.1,10.3.058,10.7,0Z" transform="translate(-0.031 -0.051)" fill="#707070"/>
      <path id="Path_82971" data-name="Path 82971" d="M103.154,91c.434,0,.869,0,1.3,0a.666.666,0,0,1,.7.707c0,.277.006.554,0,.831a.2.2,0,0,0,.152.23,6.13,6.13,0,0,1,1.652.935.28.28,0,0,0,.247.015c.247-.124.48-.275.721-.41a.673.673,0,0,1,.98.266q.657,1.123,1.3,2.254a.676.676,0,0,1-.266,1c-.231.138-.462.276-.7.4a.2.2,0,0,0-.127.247,4.791,4.791,0,0,1,0,1.872.2.2,0,0,0,.119.252c.239.123.47.262.7.4a.677.677,0,0,1,.276,1q-.648,1.141-1.313,2.272a.67.67,0,0,1-.966.257q-.363-.2-.717-.417a.189.189,0,0,0-.257.008,6.244,6.244,0,0,1-1.663.962.281.281,0,0,0-.132.208c-.015.284,0,.569-.007.853a.662.662,0,0,1-.693.691q-1.325,0-2.651,0a.665.665,0,0,1-.7-.707c0-.277-.006-.554,0-.831a.2.2,0,0,0-.152-.231,5.606,5.606,0,0,1-1.647-.942.188.188,0,0,0-.257-.012q-.354.216-.718.416a.675.675,0,0,1-.98-.267q-.656-1.123-1.3-2.253a.674.674,0,0,1,.268-1c.231-.139.462-.276.7-.4a.2.2,0,0,0,.125-.249,4.791,4.791,0,0,1,0-1.872.2.2,0,0,0-.119-.252c-.245-.128-.483-.27-.719-.414a.665.665,0,0,1-.269-.961q.657-1.161,1.336-2.31a.661.661,0,0,1,.933-.247c.256.139.5.3.761.43a.258.258,0,0,0,.228-.018,6.075,6.075,0,0,1,1.652-.937.2.2,0,0,0,.158-.227c-.009-.284-.005-.569,0-.854a.663.663,0,0,1,.692-.691c.449,0,.9,0,1.348,0m2,7.407a2.022,2.022,0,1,0-2.026,2.029,2.04,2.04,0,0,0,2.026-2.029" transform="translate(-91.661 -86.96)" fill="#707070"/>
    </g>
  </g>
</svg>
