<svg id="Group_15413" data-name="Group 15413" xmlns="http://www.w3.org/2000/svg" xmlns:xlink="http://www.w3.org/1999/xlink" width="20.039" height="17" viewBox="0 0 20.039 17">
  <defs>
    <clipPath id="clip-path">
      <rect id="Rectangle_5730" data-name="Rectangle 5730" width="20.039" height="17" fill="#e1003e"/>
    </clipPath>
  </defs>
  <g id="Group_15215" data-name="Group 15215" clip-path="url(#clip-path)">
    <path id="Path_78874" data-name="Path 78874" d="M403.487,240.448a2.137,2.137,0,0,1-.435.9,1.571,1.571,0,0,1-1.117.572c-.892.027-1.785.013-2.678.015-.018,0-.036-.01-.018,0,.017-.361.047-.711.048-1.06.005-1.643,0-3.285,0-4.928a5.144,5.144,0,0,0-.219-1.735.42.42,0,0,1,0-.1,6.514,6.514,0,0,1,2.8.311,2.85,2.85,0,0,1,1.58,2.147.412.412,0,0,0,.037.087Z" transform="translate(-383.448 -224.944)" fill="#e1003e"/>
    <path id="Path_78875" data-name="Path 78875" d="M0,236.692a5.967,5.967,0,0,1,.253-.812,2.806,2.806,0,0,1,2.469-1.711c.557-.041,1.119-.007,1.691-.007a.35.35,0,0,1,0,.109,4.8,4.8,0,0,0-.214,1.618c0,1.675,0,3.351,0,5.026,0,.349.031.7.048,1.059a.209.209,0,0,1-.057.008c-.834,0-1.669.012-2.5-.007A1.709,1.709,0,0,1,.04,240.618c-.01-.044-.027-.086-.04-.129v-3.8" transform="translate(0 -224.985)" fill="#e1003e"/>
    <path id="Path_78876" data-name="Path 78876" d="M141.516,205.268h-3.952c-.509,0-.709-.2-.708-.71,0-1.963-.006-3.926.009-5.89a2.873,2.873,0,0,1,2.351-2.679,3.66,3.66,0,0,1,.544-.047c1.239,0,2.478-.009,3.717.008a2.877,2.877,0,0,1,2.655,2.354,4.657,4.657,0,0,1,.047.661q.005,2.788,0,5.577c0,.533-.194.725-.732.725h-3.932" transform="translate(-131.499 -188.271)" fill="#e1003e"/>
    <path id="Path_78877" data-name="Path 78877" d="M170.537,0a3.479,3.479,0,1,1-3.477,3.465A3.476,3.476,0,0,1,170.537,0" transform="translate(-160.521 0)" fill="#e1003e"/>
    <path id="Path_78878" data-name="Path 78878" d="M38.462,85.416A2.607,2.607,0,1,1,35.893,82.8a2.631,2.631,0,0,1,2.568,2.613" transform="translate(-31.946 -79.561)" fill="#e1003e"/>
    <path id="Path_78879" data-name="Path 78879" d="M348.1,82.8a2.605,2.605,0,1,1-2.6,2.607,2.616,2.616,0,0,1,2.6-2.607" transform="translate(-331.984 -79.56)" fill="#e1003e"/>
  </g>
</svg>
