<svg id="Group_16256" data-name="Group 16256" xmlns="http://www.w3.org/2000/svg" xmlns:xlink="http://www.w3.org/1999/xlink" width="17.68" height="14.665" viewBox="0 0 17.68 14.665">
  <defs>
    <clipPath id="clip-path">
      <rect id="Rectangle_5991" data-name="Rectangle 5991" width="17.68" height="14.665" fill="#707070"/>
    </clipPath>
  </defs>
  <g id="Group_15429" data-name="Group 15429" clip-path="url(#clip-path)">
    <path id="Path_79069" data-name="Path 79069" d="M0,189.43a5.318,5.318,0,0,1,.257-.8,2.507,2.507,0,0,1,2.311-1.476c.695-.018,1.393-.014,2.086.035a.488.488,0,0,0,.538-.246,2.493,2.493,0,0,1,2.155-1.12c1.064,0,2.129-.016,3.192.018a2.411,2.411,0,0,1,2.017,1.2c.1.149.172.2.351.156a2.175,2.175,0,0,1,.531-.048c.523-.006,1.047,0,1.57,0a2.585,2.585,0,0,1,2.642,2.217.249.249,0,0,0,.029.06v3.315a.839.839,0,0,0-.034.094,1.577,1.577,0,0,1-.49.832,1.676,1.676,0,0,1-1.177.4q-5.585,0-11.169,0c-1.047,0-2.095,0-3.142,0a1.533,1.533,0,0,1-1.347-.63,4.036,4.036,0,0,1-.32-.694V189.43m5.763,3.584h6.154v-.182q0-2.157,0-4.314a1.552,1.552,0,0,0-1.655-1.647H7.432a1.555,1.555,0,0,0-1.669,1.668q0,2.14,0,4.28Zm-1.043.012v-.232c0-1.449,0-2.9.006-4.347,0-.179-.054-.234-.216-.235-.644,0-1.287-.014-1.931-.015a1.32,1.32,0,0,0-.356.051,1.548,1.548,0,0,0-1.186,1.575c0,.868,0,1.737,0,2.6a.529.529,0,0,0,.592.6H4.72m8.249,0h3.043c.44,0,.632-.19.632-.626,0-.736,0-1.472,0-2.208,0-.229-.01-.459-.031-.688a1.51,1.51,0,0,0-1.317-1.281c-.643-.027-1.287-.022-1.93-.028a2.716,2.716,0,0,0-.274.027c-.093.009-.136.043-.135.152.005,1.489,0,2.979.006,4.468,0,.056,0,.112.008.185" transform="translate(0 -179.405)" fill="#707070"/>
    <path id="Path_79070" data-name="Path 79070" d="M170.1,0a3.077,3.077,0,1,1-3.08,3.028A3.071,3.071,0,0,1,170.1,0M170.1,1.042a2.035,2.035,0,1,0,2.035,2.027A2.041,2.041,0,0,0,170.1,1.042" transform="translate(-161.253)" fill="#707070"/>
    <path id="Path_79071" data-name="Path 79071" d="M35.768,82.749a2.3,2.3,0,1,1-2.41,2.172,2.3,2.3,0,0,1,2.41-2.172m-1.366,2.3a1.258,1.258,0,1,0,1.263-1.253A1.26,1.26,0,0,0,34.4,85.046" transform="translate(-32.202 -79.889)" fill="#707070"/>
    <path id="Path_79072" data-name="Path 79072" d="M347.442,87.217a2.306,2.306,0,1,1,2.3-2.31,2.319,2.319,0,0,1-2.3,2.31m1.251-2.305a1.258,1.258,0,1,0-2.516.008,1.258,1.258,0,0,0,2.516-.008" transform="translate(-333.213 -79.751)" fill="#707070"/>
  </g>
</svg>
