<svg xmlns="http://www.w3.org/2000/svg" width="20.377" height="20.377" viewBox="0 0 20.377 20.377">
  <path id="Icon_ionic-ios-help-circle" data-name="Icon ionic-ios-help-circle" d="M13.564,3.375A10.189,10.189,0,1,0,23.752,13.564,10.187,10.187,0,0,0,13.564,3.375Zm-.211,14.891a1.01,1.01,0,1,1,1.053-1.009A1.023,1.023,0,0,1,13.353,18.266Zm1.969-4.746c-.852.495-1.141.857-1.141,1.484v.387h-1.7l-.015-.421a2.039,2.039,0,0,1,1.156-2.155c.828-.495,1.176-.808,1.176-1.416a1.189,1.189,0,0,0-1.318-1.053,1.239,1.239,0,0,0-1.313,1.2H10.429c.034-1.577,1.2-2.694,3.169-2.694,1.837,0,3.1,1.019,3.1,2.483A2.4,2.4,0,0,1,15.322,13.519Z" transform="translate(-3.375 -3.375)" fill="#e1003e"/>
</svg>
