<svg id="Icon_ionic-md-rocket" data-name="Icon ionic-md-rocket" xmlns="http://www.w3.org/2000/svg" width="14.681" height="24.465" viewBox="0 0 14.681 24.465">
  <path id="Path_78862" data-name="Path 78862" d="M16.959,29.42a5.488,5.488,0,0,1-2.187-.556.4.4,0,0,0-.556.387l.178,2.6a.2.2,0,0,0,.321.143l.739-.561a.2.2,0,0,1,.291.051l1.045,1.636a.2.2,0,0,0,.336,0l1.045-1.636a.2.2,0,0,1,.291-.051l.739.561a.2.2,0,0,0,.321-.143l.178-2.6a.4.4,0,0,0-.556-.387A5.512,5.512,0,0,1,16.959,29.42Z" transform="translate(-9.624 -8.747)" fill="#e1003e"/>
  <path id="Path_78863" data-name="Path 78863" d="M22.439,15.248l-2.446-2.5c0-8.053-4.75-11.621-4.75-11.621s-4.8,3.568-4.8,11.621L8,15.248a.424.424,0,0,0-.112.362l.938,5.7a.39.39,0,0,0,.6.275l3.42-2.314a3.891,3.891,0,0,0,2.4,1.019A3.679,3.679,0,0,0,17.6,19.27l3.42,2.314a.392.392,0,0,0,.6-.275l.943-5.7A.453.453,0,0,0,22.439,15.248Zm-7.2-5.153a1.632,1.632,0,1,1,1.565-1.631A1.6,1.6,0,0,1,15.242,10.1Z" transform="translate(-7.882 -1.125)" fill="#e1003e"/>
</svg>
