<svg xmlns="http://www.w3.org/2000/svg" width="20.372" height="20.377" viewBox="0 0 20.372 20.377">
  <path id="Icon_ionic-ios-settings" data-name="Icon ionic-ios-settings" d="M23.19,14.686a2.621,2.621,0,0,1,1.682-2.446,10.391,10.391,0,0,0-1.257-3.029,2.657,2.657,0,0,1-1.066.228,2.616,2.616,0,0,1-2.393-3.682A10.359,10.359,0,0,0,17.132,4.5a2.619,2.619,0,0,1-4.891,0A10.391,10.391,0,0,0,9.211,5.757,2.616,2.616,0,0,1,6.818,9.439a2.57,2.57,0,0,1-1.066-.228A10.621,10.621,0,0,0,4.5,12.246a2.621,2.621,0,0,1,.005,4.891,10.391,10.391,0,0,0,1.257,3.029A2.617,2.617,0,0,1,9.216,23.62a10.452,10.452,0,0,0,3.029,1.257,2.614,2.614,0,0,1,4.881,0,10.391,10.391,0,0,0,3.029-1.257,2.619,2.619,0,0,1,3.454-3.454,10.452,10.452,0,0,0,1.257-3.029A2.634,2.634,0,0,1,23.19,14.686Zm-8.456,4.239a4.244,4.244,0,1,1,4.244-4.244A4.243,4.243,0,0,1,14.734,18.925Z" transform="translate(-4.5 -4.5)" fill="#e1003e"/>
</svg>
