<svg id="Group_18507" data-name="Group 18507" xmlns="http://www.w3.org/2000/svg" xmlns:xlink="http://www.w3.org/1999/xlink" width="17.789" height="17.5" viewBox="0 0 17.789 17.5">
  <defs>
    <clipPath id="clip-path">
      <rect id="Rectangle_5978" data-name="Rectangle 5978" width="17.789" height="17.5" fill="#e1003e"/>
    </clipPath>
  </defs>
  <g id="Group_15405" data-name="Group 15405" clip-path="url(#clip-path)">
    <path id="Path_79023" data-name="Path 79023" d="M0,57.042V42.832a.42.42,0,0,0,.041-.07,1.139,1.139,0,0,1,1.179-.833H2.9c.056,0,.111.006.18.01,0,.076,0,.139,0,.2,0,.6,0,1.2.007,1.806a1.129,1.129,0,0,0,.27.7,1.408,1.408,0,0,0,1.4.463A1.191,1.191,0,0,0,5.843,44c.043-.5.022-1.006.028-1.509,0-.183,0-.367,0-.555h6.187v.2c0,.538,0,1.077,0,1.615a1.266,1.266,0,0,0,.758,1.24,1.784,1.784,0,0,0,1.124.068,1.021,1.021,0,0,0,.9-1.109c0-.608,0-1.216,0-1.824v-.192h1.963a.377.377,0,0,1,.085.018,1.135,1.135,0,0,1,.895,1.181q0,6.722,0,13.445c0,.1,0,.2,0,.3a1.09,1.09,0,0,1-.226.626,1.2,1.2,0,0,1-1.032.466H1.294a1.162,1.162,0,0,1-.923-.316A3.711,3.711,0,0,1,0,57.042M16.634,46.453H1.156V56.814H16.634Z" transform="translate(0 -40.469)" fill="#e1003e"/>
    <path id="Path_79024" data-name="Path 79024" d="M363.48,0a.743.743,0,0,1,.631.518,1.059,1.059,0,0,1,.032.273q0,1.25,0,2.5a.7.7,0,0,1-.78.782A1.479,1.479,0,0,1,363,4.046a.7.7,0,0,1-.519-.733q-.007-1.267,0-2.534c0-.428.179-.62.685-.779Z" transform="translate(-349.86)" fill="#e1003e"/>
    <path id="Path_79025" data-name="Path 79025" d="M104.771,2.99c0-.428,0-.857,0-1.285a.693.693,0,0,1,.729-.73,1.859,1.859,0,0,1,.364.013.7.7,0,0,1,.564.7c.009.88.012,1.76,0,2.64a.7.7,0,0,1-.742.708,1.685,1.685,0,0,1-.379-.028.669.669,0,0,1-.533-.661c0-.452,0-.9,0-1.355Z" transform="translate(-101.123 -0.939)" fill="#e1003e"/>
    <path id="Path_79026" data-name="Path 79026" d="M365.112,380.51c-.313,0-.625,0-.938,0-.154,0-.223-.06-.223-.215q0-.825,0-1.65c0-.145.064-.213.209-.213h1.928c.144,0,.205.07.2.216q-.006.825,0,1.65c0,.148-.062.211-.208.21-.324,0-.648,0-.972,0" transform="translate(-351.282 -365.26)" fill="#e1003e"/>
    <path id="Path_79027" data-name="Path 79027" d="M77.565,380.48c-.313,0-.625,0-.938,0-.16,0-.237-.058-.237-.221q0-.816,0-1.633c0-.163.077-.226.235-.225.625,0,1.25,0,1.876,0,.188,0,.231.048.232.239q0,.8,0,1.6c0,.2-.036.237-.248.238h-.92" transform="translate(-73.732 -365.23)" fill="#e1003e"/>
    <path id="Path_79028" data-name="Path 79028" d="M173.43,380.5c-.313,0-.625,0-.938,0-.156,0-.221-.066-.22-.218q0-.825,0-1.65c0-.146.069-.21.212-.21q.955,0,1.91,0c.149,0,.221.062.22.22,0,.55,0,1.1,0,1.65,0,.149-.068.208-.211.207-.324,0-.648,0-.972,0" transform="translate(-166.275 -365.255)" fill="#e1003e"/>
    <path id="Path_79029" data-name="Path 79029" d="M269.241,380.5c-.313,0-.625,0-.938,0-.165,0-.23-.069-.229-.228,0-.538,0-1.077,0-1.615,0-.19.046-.233.239-.234q.929,0,1.858,0c.2,0,.241.044.242.246q0,.8,0,1.6c0,.195-.037.23-.236.231-.313,0-.625,0-.938,0" transform="translate(-258.743 -365.25)" fill="#e1003e"/>
    <path id="Path_79030" data-name="Path 79030" d="M269.279,214.078c-.318,0-.636,0-.955,0-.14,0-.2-.06-.2-.2q0-.842,0-1.684a.171.171,0,0,1,.194-.191q.981,0,1.961,0c.124,0,.186.067.185.2,0,.561,0,1.122,0,1.684,0,.132-.063.187-.192.186-.33,0-.66,0-.989,0" transform="translate(-258.786 -204.628)" fill="#e1003e"/>
    <path id="Path_79031" data-name="Path 79031" d="M365.1,214.055c-.318,0-.636,0-.955,0-.148,0-.212-.06-.211-.205,0-.55,0-1.1,0-1.649,0-.157.073-.218.222-.218q.946,0,1.892,0c.156,0,.23.06.228.228-.006.538,0,1.076,0,1.614,0,.2-.029.227-.235.228H365.1" transform="translate(-351.265 -204.605)" fill="#e1003e"/>
    <path id="Path_79032" data-name="Path 79032" d="M77.584,295.382c.312,0,.625,0,.937,0,.151,0,.224.05.223.21q-.007.824,0,1.649c0,.15-.07.211-.209.211H76.608c-.144,0-.209-.071-.208-.215,0-.55,0-1.1,0-1.649,0-.142.061-.21.211-.207.324.006.648,0,.972,0" transform="translate(-73.74 -285.097)" fill="#e1003e"/>
    <path id="Path_79033" data-name="Path 79033" d="M173.449,295.371c.318,0,.636,0,.955,0,.146,0,.21.057.21.205q0,.824,0,1.649c0,.148-.062.216-.2.216h-1.927c-.142,0-.212-.063-.211-.21q0-.824,0-1.649c0-.155.068-.215.223-.212.318.007.636,0,.955,0" transform="translate(-166.274 -285.087)" fill="#e1003e"/>
    <path id="Path_79034" data-name="Path 79034" d="M269.267,295.391c.318,0,.636,0,.955,0,.146,0,.211.054.21.2q-.005.824,0,1.649c0,.147-.06.217-.2.217H268.3c-.141,0-.213-.062-.213-.209,0-.555,0-1.111,0-1.666,0-.136.064-.2.2-.2.324,0,.648,0,.972,0" transform="translate(-258.757 -285.106)" fill="#e1003e"/>
    <path id="Path_79035" data-name="Path 79035" d="M365.124,295.372c.318,0,.636,0,.955,0,.148,0,.208.059.207.207q-.005.824,0,1.649c0,.149-.064.214-.206.214h-1.927c-.143,0-.21-.065-.209-.212q0-.824,0-1.649c0-.157.071-.214.224-.21.318.007.636,0,.955,0" transform="translate(-351.275 -285.088)" fill="#e1003e"/>
  </g>
</svg>
