<svg xmlns="http://www.w3.org/2000/svg" xmlns:xlink="http://www.w3.org/1999/xlink" width="16" height="16" viewBox="0 0 16 16">
  <defs>
    <clipPath id="clip-path">
      <rect id="Rectangle_6393" data-name="Rectangle 6393" width="16" height="16" transform="translate(0.021 0.021)" fill="#e1003e"/>
    </clipPath>
  </defs>
  <g id="Group_16186" data-name="Group 16186" transform="translate(-0.021 -0.322)">
    <g id="Group_16186-2" data-name="Group 16186" transform="translate(0 0.301)" clip-path="url(#clip-path)">
      <path id="Path_82969" data-name="Path 82969" d="M55.783,161.97c-.266-.039-.532-.071-.8-.117A8,8,0,0,1,51.6,160.4l-.068-.046a.87.87,0,0,0,.014.107.466.466,0,0,1-.287.605.457.457,0,0,1-.587-.319c-.214-.629-.422-1.261-.633-1.891a.45.45,0,0,1,.1-.493.456.456,0,0,1,.507-.1q.845.284,1.69.564c.067.022.136.042.2.067a.477.477,0,0,1,.333.461.471.471,0,0,1-.383.436c-.029.007-.059.012-.13.025.212.127.393.245.582.348a6.876,6.876,0,0,0,10.135-4.69,6.669,6.669,0,0,0-.369-3.816.741.741,0,0,1-.059-.309.454.454,0,0,1,.877-.116c.169.531.329,1.066.471,1.6a7.8,7.8,0,0,1,.128.794v1.07c-.034.246-.06.493-.1.737a7.887,7.887,0,0,1-6.344,6.413c-.274.05-.551.082-.826.123Z" transform="translate(-48.479 -146.337)" fill="#e1003e"/>
      <path id="Path_82970" data-name="Path 82970" d="M8.343,0c.271.04.543.073.812.12A7.921,7.921,0,0,1,12.439,1.51l.167.118c-.02-.092-.039-.155-.047-.219a.457.457,0,0,1,.884-.217c.168.484.327.972.489,1.458.051.154.1.309.154.462a.466.466,0,0,1-.607.6l-1.647-.55c-.077-.026-.154-.051-.231-.077a.462.462,0,0,1,.047-.905c.024-.006.05-.009.091-.016a.894.894,0,0,0-.083-.07A6.89,6.89,0,0,0,1.047,6.5a6.63,6.63,0,0,0,.376,3.83.474.474,0,0,1-.181.649.457.457,0,0,1-.654-.248,8.143,8.143,0,0,1-.5-1.755C.06,8.764.031,8.553,0,8.343V7.273a.965.965,0,0,0,.029-.133A6.8,6.8,0,0,1,.482,5.126a7.778,7.778,0,0,1,5.979-5C6.729.066,7,.04,7.273,0Z" transform="translate(0 -0.014)" fill="#e1003e"/>
      <path id="Path_82971" data-name="Path 82971" d="M100.846,91c.3,0,.591,0,.886,0a.453.453,0,0,1,.476.481c0,.188,0,.377,0,.565a.135.135,0,0,0,.1.156,4.169,4.169,0,0,1,1.124.636.191.191,0,0,0,.168.011c.168-.085.326-.187.491-.279a.458.458,0,0,1,.666.181q.447.764.884,1.532a.459.459,0,0,1-.181.678c-.157.094-.314.188-.476.273a.136.136,0,0,0-.086.168,3.258,3.258,0,0,1,0,1.273.136.136,0,0,0,.081.171c.163.083.32.178.477.272a.461.461,0,0,1,.187.677q-.441.776-.893,1.545a.456.456,0,0,1-.657.175q-.247-.136-.488-.284a.128.128,0,0,0-.175.005,4.246,4.246,0,0,1-1.131.654.191.191,0,0,0-.09.141c-.01.193,0,.387,0,.58a.451.451,0,0,1-.471.47q-.9,0-1.8,0a.452.452,0,0,1-.475-.481c0-.188,0-.377,0-.565a.136.136,0,0,0-.1-.157,3.812,3.812,0,0,1-1.12-.641.128.128,0,0,0-.174-.008q-.241.147-.488.283a.459.459,0,0,1-.666-.182q-.446-.764-.884-1.532a.458.458,0,0,1,.182-.677c.157-.094.314-.188.476-.273a.137.137,0,0,0,.085-.169,3.258,3.258,0,0,1,0-1.273.137.137,0,0,0-.081-.171c-.166-.087-.328-.184-.489-.282a.452.452,0,0,1-.183-.654q.447-.79.908-1.571a.45.45,0,0,1,.635-.168c.174.094.342.2.518.293a.176.176,0,0,0,.155-.012,4.131,4.131,0,0,1,1.123-.637.136.136,0,0,0,.107-.154c-.006-.193,0-.387,0-.58A.451.451,0,0,1,99.93,91c.305,0,.611,0,.916,0m1.362,5.037a1.375,1.375,0,1,0-1.378,1.38,1.387,1.387,0,0,0,1.378-1.38" transform="translate(-93.01 -88.232)" fill="#e1003e"/>
    </g>
  </g>
</svg>
