<svg id="Group_18506" data-name="Group 18506" xmlns="http://www.w3.org/2000/svg" xmlns:xlink="http://www.w3.org/1999/xlink" width="18.417" height="17" viewBox="0 0 18.417 17">
  <defs>
    <clipPath id="clip-path">
      <rect id="Rectangle_6018" data-name="Rectangle 6018" width="18.417" height="17" fill="#e1003e"/>
    </clipPath>
  </defs>
  <g id="Group_15479" data-name="Group 15479" clip-path="url(#clip-path)">
    <path id="Path_79088" data-name="Path 79088" d="M0,151.869V144H18.417v7.736l-.018-.06a3.172,3.172,0,0,1-2.906,2.926l.079.022H2.767l.15-.018a3.054,3.054,0,0,1-1.98-.928,2.926,2.926,0,0,1-.9-2.007l-.033.2M7.288,148v0c-.234,0-.469,0-.7,0a.7.7,0,0,0-.676.674.714.714,0,0,0,.316.629c.367.266.734.533,1.1.8a.075.075,0,0,1,.036.1c-.145.438-.29.877-.428,1.318a.712.712,0,0,0,1.105.8c.375-.265.745-.537,1.114-.809a.074.074,0,0,1,.108,0c.359.264.721.525,1.081.789a.765.765,0,0,0,.482.164.7.7,0,0,0,.683-.785,2.366,2.366,0,0,0-.11-.392q-.174-.55-.352-1.1a.051.051,0,0,1,.022-.069c.1-.072.2-.146.305-.219.286-.208.576-.412.857-.627A.711.711,0,0,0,11.754,148c-.452,0-.9,0-1.356,0-.033,0-.065,0-.078-.041-.052-.167-.106-.333-.16-.5-.1-.3-.181-.6-.29-.887a.688.688,0,0,0-.829-.432.671.671,0,0,0-.516.482q-.215.65-.421,1.3a.085.085,0,0,1-.1.072c-.24,0-.48,0-.719,0" transform="translate(0 -137.625)" fill="#e1003e"/>
    <path id="Path_79089" data-name="Path 79089" d="M18.417,34.8v1.417H0v-1.45l.026.152H.041a1.252,1.252,0,0,1,0-.215A4.593,4.593,0,0,1,.152,34.2a2.968,2.968,0,0,1,.714-1.207,3.148,3.148,0,0,1,2.323-1.017c.334,0,.668,0,1,0h.06c0,.374,0,.739,0,1.1a1.187,1.187,0,0,0,.014.187,1.42,1.42,0,0,0,2.285.878,1.357,1.357,0,0,0,.533-1.093c0-.337,0-.675,0-1.013v-.061h4.25v.063c0,.347,0,.694,0,1.04a1.177,1.177,0,0,0,.015.187,1.412,1.412,0,0,0,1.321,1.182,1.428,1.428,0,0,0,.953-.3,1.359,1.359,0,0,0,.544-1.1c0-.337,0-.675,0-1.013v-.061h.068c.306,0,.612,0,.918,0a3.52,3.52,0,0,1,.875.1,3.086,3.086,0,0,1,1.365.752A3.027,3.027,0,0,1,18.15,33.9a2.585,2.585,0,0,1,.234.982.209.209,0,0,0,.009.035l.023-.111" transform="translate(0 -30.554)" fill="#e1003e"/>
    <path id="Path_79090" data-name="Path 79090" d="M112.78,0a.286.286,0,0,0,.054.022.708.708,0,0,1,.554.6c.007.07.011.14.011.21q0,.8,0,1.593a.747.747,0,0,1-.158.489.69.69,0,0,1-.854.2.718.718,0,0,1-.4-.668q0-.879,0-1.759a.688.688,0,0,1,.582-.667A.121.121,0,0,0,112.6,0Z" transform="translate(-107.025)" fill="#e1003e"/>
    <path id="Path_79091" data-name="Path 79091" d="M272.793,0a.286.286,0,0,0,.054.022.708.708,0,0,1,.555.6c.007.068.011.136.011.2,0,.535,0,1.07,0,1.6a.715.715,0,0,1-.341.644.7.7,0,0,1-1.064-.506,1.809,1.809,0,0,1-.011-.2c0-.551,0-1.1,0-1.655a.691.691,0,0,1,.588-.69c.011,0,.021-.013.032-.021Z" transform="translate(-259.955)" fill="#e1003e"/>
  </g>
</svg>
