<svg xmlns="http://www.w3.org/2000/svg" xmlns:xlink="http://www.w3.org/1999/xlink" width="1920" height="1078" viewBox="0 0 1920 1078">
  <defs>
    <clipPath id="clip-path">
      <rect id="Rectangle_7464" data-name="Rectangle 7464" width="1920" height="1078" fill="#fff"/>
    </clipPath>
    <linearGradient id="linear-gradient" x1="-0.181" y1="1" x2="2.008" y2="1" gradientUnits="objectBoundingBox">
      <stop offset="0" stop-color="#6e0d88"/>
      <stop offset="1" stop-color="#a32447"/>
    </linearGradient>
    <clipPath id="clip-path-2">
      <rect id="Rectangle_6239" data-name="Rectangle 6239" width="1244.942" height="2317.166" fill="none"/>
    </clipPath>
  </defs>
  <g id="Mask_Group_15033" data-name="Mask Group 15033" clip-path="url(#clip-path)">
    <g id="Group_18208" data-name="Group 18208">
      <rect id="Rectangle_6237" data-name="Rectangle 6237" width="1920" height="1078" fill="url(#linear-gradient)"/>
      <g id="Group_15845" data-name="Group 15845" transform="translate(676 -581.956)">
        <g id="Group_15844" data-name="Group 15844" clip-path="url(#clip-path-2)">
          <path id="Path_79265" data-name="Path 79265" d="M999.317,81.426c-33.649,42.22-55.987,136.914-139.551,151.76C763.392,250.309,689.3,333.423,652.75,412.99,598.8,530.433,625.835,652.975,511.433,682.352s-306.185,54-333.106,204.543S0,1158.583,0,1158.583s151.412,121.153,178.328,271.688,218.709,175.171,333.106,204.543,87.37,151.923,141.317,269.363c36.551,79.567,110.642,162.681,207.015,179.8,83.564,14.847,105.9,109.541,139.551,151.76s77.387,81.426,245.625,81.426V0C1076.7,0,1032.965,39.207,999.317,81.426" fill="#6e0d88"/>
          <path id="Path_79266" data-name="Path 79266" d="M178.431,527.8c26.916,150.539,218.7,175.166,333.106,204.543C618.867,759.9,601.712,869.477,643.734,979.9h96.055c-156.459-67.855-5.85-149.738-52.994-239.755-29.021-55.415-94.632-41.844-306.608-80.3S249.73,524.645,209.848,394.087C167.7,256.115.1,256.115.1,256.115S151.515,377.264,178.431,527.8" transform="translate(-1.583 902.468)" fill="#e1003e" opacity="0.446"/>
          <path id="Path_79267" data-name="Path 79267" d="M178.431,548.216c26.916-150.539,218.7-175.166,333.106-204.543,107.331-27.558,90.176-137.131,132.2-247.559h96.055C583.33,163.97,733.94,245.853,686.795,335.87c-29.021,55.415-94.632,41.844-306.608,80.3S249.73,551.374,209.848,681.932C167.7,819.9.1,819.9.1,819.9S151.515,698.755,178.431,548.216" transform="translate(-1.583 338.679)" fill="#e1003e" opacity="0.446"/>
        </g>
      </g>
      <g id="Group_15847" data-name="Group 15847">
        <g id="Union_92" data-name="Union 92" transform="translate(3306 7413)" fill="none" opacity="0.28">
          <path d="M-1923.543-6793H-1991v-162h67.458c38.007-203.758,216.761-358,431.542-358,242.453,0,439,196.548,439,439s-196.546,439-439,439C-1706.781-6435-1885.536-6589.241-1923.543-6793Z" stroke="none"/>
          <path d="M -1492.00048828125 -6435.99951171875 C -1477.0595703125 -6435.99951171875 -1461.991943359375 -6436.76025390625 -1447.21630859375 -6438.2607421875 C -1432.65478515625 -6439.73974609375 -1418.022827148438 -6441.97265625 -1403.72705078125 -6444.8984375 C -1389.616333007812 -6447.78564453125 -1375.494018554688 -6451.4169921875 -1361.752319335938 -6455.69091796875 C -1348.164306640625 -6459.91748046875 -1334.625366210938 -6464.87255859375 -1321.511352539062 -6470.41943359375 C -1295.558227539062 -6481.396484375 -1270.526489257812 -6494.98388671875 -1247.111206054688 -6510.802734375 C -1223.918090820312 -6526.4716796875 -1202.1083984375 -6544.466796875 -1182.287841796875 -6564.287109375 C -1162.467163085938 -6584.10791015625 -1144.472534179688 -6605.91796875 -1128.803588867188 -6629.11083984375 C -1112.984619140625 -6652.5263671875 -1099.397827148438 -6677.55810546875 -1088.420532226562 -6703.51123046875 C -1082.873901367188 -6716.62548828125 -1077.91845703125 -6730.16455078125 -1073.692260742188 -6743.75244140625 C -1069.418090820312 -6757.494140625 -1065.786865234375 -6771.61669921875 -1062.8994140625 -6785.7275390625 C -1059.97412109375 -6800.02294921875 -1057.741088867188 -6814.6552734375 -1056.26220703125 -6829.216796875 C -1054.76171875 -6843.9921875 -1054.000854492188 -6859.06005859375 -1054.000854492188 -6874.0009765625 C -1054.000854492188 -6888.94189453125 -1054.76171875 -6904.00927734375 -1056.26220703125 -6918.78466796875 C -1057.741088867188 -6933.34619140625 -1059.97412109375 -6947.97802734375 -1062.8994140625 -6962.27392578125 C -1065.786865234375 -6976.38427734375 -1069.418090820312 -6990.5068359375 -1073.692260742188 -7004.24853515625 C -1077.91845703125 -7017.83642578125 -1082.873901367188 -7031.37548828125 -1088.420532226562 -7044.4892578125 C -1099.397827148438 -7070.4423828125 -1112.984619140625 -7095.47412109375 -1128.803588867188 -7118.88916015625 C -1144.472534179688 -7142.08251953125 -1162.467163085938 -7163.89208984375 -1182.287841796875 -7183.712890625 C -1202.1083984375 -7203.53369140625 -1223.918090820312 -7221.5283203125 -1247.111206054688 -7237.197265625 C -1270.526489257812 -7253.01611328125 -1295.558227539062 -7266.60302734375 -1321.511352539062 -7277.58056640625 C -1334.625366210938 -7283.126953125 -1348.164306640625 -7288.08251953125 -1361.752319335938 -7292.30908203125 C -1375.494018554688 -7296.5830078125 -1389.616333007812 -7300.21435546875 -1403.72705078125 -7303.1015625 C -1418.022827148438 -7306.02734375 -1432.65478515625 -7308.26025390625 -1447.21630859375 -7309.7392578125 C -1461.991943359375 -7311.23974609375 -1477.0595703125 -7312.00048828125 -1492.00048828125 -7312.00048828125 C -1505.245849609375 -7312.00048828125 -1518.614379882812 -7311.40234375 -1531.734619140625 -7310.22265625 C -1544.684204101562 -7309.05810546875 -1557.71728515625 -7307.2978515625 -1570.472045898438 -7304.99072265625 C -1583.076049804688 -7302.7109375 -1595.722534179688 -7299.84033203125 -1608.060424804688 -7296.45849609375 C -1620.268798828125 -7293.1123046875 -1632.477416992188 -7289.1826171875 -1644.346923828125 -7284.779296875 C -1667.826782226562 -7276.06787109375 -1690.724365234375 -7265.2373046875 -1712.403930664062 -7252.5888671875 C -1733.840576171875 -7240.08203125 -1754.369140625 -7225.63330078125 -1773.418823242188 -7209.64404296875 C -1792.394287109375 -7193.7177734375 -1810.141235351562 -7176.0625 -1826.166870117188 -7157.16943359375 C -1842.251586914062 -7138.20703125 -1856.804809570312 -7117.7578125 -1869.422485351562 -7096.390625 C -1882.180297851562 -7074.78564453125 -1893.1279296875 -7051.95458984375 -1901.96142578125 -7028.53173828125 C -1906.42626953125 -7016.69287109375 -1910.419311523438 -7004.5126953125 -1913.82958984375 -6992.330078125 C -1917.275634765625 -6980.01953125 -1920.212890625 -6967.39892578125 -1922.5595703125 -6954.8173828125 L -1922.7119140625 -6954.0009765625 L -1990.00048828125 -6954.0009765625 L -1990.00048828125 -6794.0009765625 L -1922.712036132812 -6794.0009765625 L -1922.559692382812 -6793.1845703125 C -1920.213012695312 -6780.60302734375 -1917.275756835938 -6767.98193359375 -1913.829711914062 -6755.67138671875 C -1910.41943359375 -6743.48876953125 -1906.426391601562 -6731.30859375 -1901.961547851562 -6719.4697265625 C -1893.128051757812 -6696.04638671875 -1882.180419921875 -6673.21533203125 -1869.422607421875 -6651.6103515625 C -1856.804931640625 -6630.2431640625 -1842.251708984375 -6609.7939453125 -1826.166870117188 -6590.8310546875 C -1810.141357421875 -6571.93798828125 -1792.394287109375 -6554.28271484375 -1773.4189453125 -6538.3564453125 C -1754.369140625 -6522.3671875 -1733.840698242188 -6507.91845703125 -1712.403930664062 -6495.41162109375 C -1690.724365234375 -6482.7626953125 -1667.826782226562 -6471.9326171875 -1644.346923828125 -6463.22119140625 C -1632.477416992188 -6458.8173828125 -1620.268798828125 -6454.8876953125 -1608.060424804688 -6451.54150390625 C -1595.722534179688 -6448.15966796875 -1583.076049804688 -6445.2890625 -1570.472045898438 -6443.00927734375 C -1557.71728515625 -6440.7021484375 -1544.684204101562 -6438.94189453125 -1531.734619140625 -6437.77734375 C -1518.614379882812 -6436.59765625 -1505.245849609375 -6435.99951171875 -1492.00048828125 -6435.99951171875 M -1492.00048828125 -6434.99951171875 C -1706.781127929688 -6434.99951171875 -1885.536010742188 -6589.2412109375 -1923.542724609375 -6793.0009765625 L -1991.00048828125 -6793.0009765625 L -1991.00048828125 -6955.0009765625 L -1923.542602539062 -6955.0009765625 C -1885.535888671875 -7158.75927734375 -1706.781127929688 -7313.00048828125 -1492.00048828125 -7313.00048828125 C -1249.547241210938 -7313.00048828125 -1053.000854492188 -7116.4521484375 -1053.000854492188 -6874.0009765625 C -1053.000854492188 -6631.54736328125 -1249.547241210938 -6434.99951171875 -1492.00048828125 -6434.99951171875 Z" stroke="none" fill="#fff"/>
        </g>
        <circle id="Ellipse_1748" data-name="Ellipse 1748" cx="16.5" cy="16.5" r="16.5" transform="translate(1589 135)" fill="#7c1896"/>
        <circle id="Ellipse_1750" data-name="Ellipse 1750" cx="16.5" cy="16.5" r="16.5" transform="translate(1589 909)" fill="#7c1896"/>
        <rect id="Rectangle_6241" data-name="Rectangle 6241" width="87" height="18" rx="9" transform="translate(1645.789 185.892) rotate(50)" fill="#7c1896"/>
        <rect id="Rectangle_6242" data-name="Rectangle 6242" width="87" height="18" rx="9" transform="translate(1632 880.538) rotate(-50)" fill="#7c1896"/>
      </g>
    </g>
  </g>
</svg>
